<svg width="593" height="806" viewBox="0 0 593 806" fill="none" xmlns="http://www.w3.org/2000/svg">
<path fill-rule="evenodd" clip-rule="evenodd" d="M539.452 698.69C536.696 698.69 534.461 696.453 534.461 693.694V130.484L357.687 328.831C355.856 330.89 352.693 331.077 350.642 329.235C348.586 327.397 348.405 324.24 350.24 322.18L544.443 104.269V693.694C544.443 696.453 542.207 698.69 539.452 698.69" fill="#7FCDFF"/>
<path fill-rule="evenodd" clip-rule="evenodd" d="M0.244469 717.152L-21.6482 705.809C-35.5671 683.589 -46.3617 657.497 -47.3085 629.306C-47.3085 629.306 -26.6813 628.008 -3.31681 631.575L11.4245 649.102L12.602 634.776C24.0445 637.703 35.1926 642.084 44.0298 648.62L45.6246 677.262L54.747 659.33C56.4784 661.752 57.9548 664.364 59.1383 667.186C77.3514 710.62 90.8211 766.809 90.8211 766.809L45.5442 778.5C45.5442 778.5 17.5016 758.162 -7.77334 725.603L0.244469 717.152Z" fill="#AD2500"/>
<path fill-rule="evenodd" clip-rule="evenodd" d="M39.4918 760.068C51.8721 762.662 59.726 760.68 62.4922 759.727C43.6874 745.022 25.4986 724.928 10.642 706.434C9.97282 706.639 9.30518 706.827 8.64512 706.999C-3.70176 710.186 -14.7042 707.474 -23.0361 703.564C-23.508 702.788 -23.9769 702.01 -24.4412 701.225C-15.8635 705.673 -3.8884 709.148 9.64962 705.195C5.31296 699.761 1.11894 694.291 -3.00528 688.729C-13.7043 690.064 -25.5398 686.439 -34.0341 682.901C-34.3406 682.225 -34.6441 681.546 -34.9445 680.866C-26.7203 684.422 -14.7133 688.418 -4.01585 687.361C-24.9389 658.982 -39.5528 635.458 -39.706 635.196L-43.7346 630.109L-39.1142 633.172C-38.8472 633.628 -26.9009 652.67 -10.1324 676.282C-7.70762 663.646 -17.6935 636.875 -20.5143 629.682C-19.971 629.72 -19.4248 629.76 -18.874 629.805C-15.5676 638.256 -5.55144 665.564 -8.99436 677.883C1.64547 692.775 14.5401 709.585 28.5409 725.201C30.8671 718.48 14.9817 682.993 21.7977 665.615C25.9568 655.01 24.1421 644.386 22.0102 637.561C22.5837 637.757 23.1573 637.957 23.7263 638.162C25.7793 645.232 27.2739 655.689 23.1725 666.148C16.3063 683.658 33.5012 720.058 29.6001 726.378C32.3404 729.411 35.1218 732.394 37.9365 735.307C39.9652 699.184 39.5176 698.034 34.656 685.177C31.8609 677.781 29.2192 670.798 33.0035 664.406C36.2871 658.859 35.4966 649.753 34.0809 642.566C34.6529 642.853 35.2204 643.147 35.7803 643.447C37.0929 650.667 37.6315 659.481 34.2751 665.154C28.2466 675.335 40.3947 687.584 40.4387 702.857C40.4796 716.686 39.4994 733.909 39.3325 736.743C45.0909 742.634 50.9783 748.209 56.9219 753.279C58.33 751.301 63.9671 741.987 57.8293 727.039C52.8447 714.902 60.5105 695.831 66.0171 684.718C66.2613 685.375 66.5011 686.031 66.7408 686.69C61.4315 697.75 54.6625 715.443 59.1949 726.479C65.7485 742.438 59.5743 752.19 58.0539 754.237C65.2159 760.258 72.4538 765.525 79.64 769.697L77.628 770.216C76.3564 769.457 75.0879 768.666 73.8194 767.842C68.6816 771.035 59.7852 772.341 49.549 768.196C43.3429 765.681 37.6285 766.617 33.1507 768.482C32.7486 768.134 32.3389 767.779 31.9216 767.416C36.7788 765.241 43.1396 764.011 50.1059 766.831C61.7487 771.547 69.7938 768.325 72.4295 766.933C69.5677 765.028 66.709 762.972 63.8639 760.79C56.9523 763.703 46.7418 763.092 39.1853 761.51C34.3115 760.489 29.6865 760.825 25.6291 761.771C25.2057 761.381 24.7794 760.984 24.3469 760.58C28.808 759.414 33.9944 758.917 39.4918 760.068" fill="#A7CBD3"/>
<path fill-rule="evenodd" clip-rule="evenodd" d="M50.8824 666.926L54.7472 659.33C56.4785 661.752 57.9549 664.364 59.137 667.186C77.3515 710.619 90.8213 766.81 90.8213 766.81C90.8213 766.81 62.5571 730.374 50.8824 666.926" fill="#195F6D"/>
<path fill-rule="evenodd" clip-rule="evenodd" d="M230.37 692.897C228.461 693.389 200.971 687.313 162.689 710.374C124.408 733.432 100.137 764.404 100.137 764.404C100.137 764.404 149.896 761.309 191.431 742.983C232.966 724.657 230.37 692.897 230.37 692.897" fill="#004A58"/>
<path fill-rule="evenodd" clip-rule="evenodd" d="M104.217 759.75C126.62 734.039 163.289 703.773 198.516 695.281C196.504 717.953 190.486 735.629 173.139 750.007C143.868 759.781 114.634 763.317 104.143 764.337C104.14 762.919 104.161 761.385 104.217 759.75" fill="#003842"/>
<path fill-rule="evenodd" clip-rule="evenodd" d="M57.3372 582.339L79.9446 596.446L62.8589 559.199C66.5037 546.615 71.0968 534.618 76.6048 523.834C91.8059 494.065 121.134 448.107 121.134 448.107C134.784 463.917 145.441 479.931 153.586 495.924L138.892 521.432L161.422 513.155C212.381 640.056 115.485 760.439 115.485 760.439L90.8211 766.809C90.8211 766.809 52.1842 662.773 52.6698 627.683C52.8746 612.934 54.4512 597.494 57.3372 582.339" fill="#E0AA1A"/>
<path fill-rule="evenodd" clip-rule="evenodd" d="M53.6327 640.195C53.3262 638.004 53.088 635.923 52.9226 633.972C61.8038 646.915 84.4293 677.752 101.705 682.907C101.846 681.343 101.997 679.774 102.163 678.209C85.8511 676.553 64.3196 642.798 52.7951 622.545C52.8588 620.703 52.9453 618.85 53.0515 616.994C65.3923 639.237 87.6886 673.958 102.486 675.288C103.9 663.078 106.105 650.971 109.436 639.981C112.171 630.952 114.258 618.967 115.837 605.395C100.45 598.912 79.8833 559.824 69.8079 538.874C70.2889 537.672 70.7775 536.479 71.2767 535.298C80.5949 554.864 101.597 595.158 116.185 602.323C117.271 592.347 118.104 581.597 118.733 570.59C103.598 557.076 91.0618 523.411 85.6387 507.074C86.2896 505.909 86.9512 504.741 87.6173 503.565C92.262 517.824 104.454 551.993 118.944 566.715C121.839 511.604 120.799 452.034 120.766 451.118L121.329 448.865L121.869 451.015C121.904 452.042 125.297 526.945 120.594 586.629C143.666 588.207 163.096 567.261 173.062 553.879C173.302 555.233 173.528 556.584 173.734 557.934C171.206 561.193 168.193 564.769 164.749 568.32C154.546 578.844 143.921 585.585 133.421 588.296C129.031 589.431 124.664 589.859 120.358 589.564C119.006 605.723 117.106 620.603 114.463 632.368C135.314 634.079 161.237 619.494 175.369 610.236C175.255 611.514 175.133 612.785 175.003 614.051C164.714 620.671 149.4 629.244 133.958 633.232C127.118 634.998 120.247 635.865 113.781 635.265C113.297 637.221 112.791 639.08 112.264 640.828C97.9142 688.168 104.718 756.704 105.39 763.047L102.501 763.793C102.302 761.989 98.3042 724.923 101.45 685.898C84.7996 681.372 64.2331 655.143 53.6327 640.195" fill="#CFD5F1"/>
<path fill-rule="evenodd" clip-rule="evenodd" d="M115.544 760.425L92.5758 766.357C92.5758 766.357 85.262 715.829 122.456 671.349L130.161 678.529L127.674 665.466C129.891 663.109 132.241 660.779 134.736 658.481L146.168 673.288L143.693 650.879C151.884 644.469 161.349 638.421 172.291 632.951C159.085 705.197 117.124 758.441 115.544 760.425" fill="#6670A4"/>
<path fill-rule="evenodd" clip-rule="evenodd" d="M-5.55083 699.74L4.72635 719.747L6.59727 703.012C13.6015 705.186 20.6117 707.888 27.405 711.24L31.8312 721.362L36.5108 716.225C55.0895 727.485 71.0902 744.413 79.3827 769.761L41.2602 779.607C41.2602 779.607 -46.57 778.091 -70.9861 695.213C-70.9861 695.213 -39.9649 691.792 -5.55083 699.74" fill="#469AA8"/>
<path fill-rule="evenodd" clip-rule="evenodd" d="M64.7033 773.553L58.3334 775.199C7.24489 762.511 -61.7592 702.189 -64.7818 699.53L-69.1185 695.554L-62.8259 697.32C-62.0627 697.99 14.023 764.509 64.7033 773.553" fill="#A7CBD3"/>
<path fill-rule="evenodd" clip-rule="evenodd" d="M125.775 683.277L132.378 689.43L130.246 678.236C132.143 676.22 134.158 674.222 136.296 672.253L146.088 684.94L143.968 665.741C155.074 657.051 168.917 649.139 186.168 642.73C186.168 642.73 195.704 695.499 178.705 724.211C161.706 752.923 124.951 758.233 124.951 758.233L100.166 764.633C100.166 764.633 93.9128 721.385 125.775 683.277" fill="#E0AA1A"/>
<path fill-rule="evenodd" clip-rule="evenodd" d="M122.183 758.949L118.436 759.916C163.369 708.263 182.975 647.07 183.171 646.448L185.611 644.012L185.284 647.105C185.092 647.723 165.959 707.461 122.183 758.949" fill="#F3DDA3"/>
<path fill-rule="evenodd" clip-rule="evenodd" d="M99.3955 764.194C99.3955 764.194 119.737 706.569 147.436 681.807C175.131 657.045 231.143 657.639 231.143 657.639C231.143 657.639 225.941 669.444 217.039 685.115L196.225 688.091L210.842 695.61C196.225 719.406 174.956 747.472 151.173 757.871C106.82 777.262 99.3955 764.194 99.3955 764.194" fill="#AD2500"/>
<path fill-rule="evenodd" clip-rule="evenodd" d="M99.3955 764.194C99.4015 764.178 99.6504 763.453 100.493 761.224C107.614 752.712 130.807 725.516 153.041 703.732C153.707 697.196 148.807 689.569 144.671 684.41C145.281 683.804 145.897 683.216 146.518 682.644C150.417 687.478 155.044 694.53 155.569 701.275C156.605 700.275 164.163 693.496 166.913 691.35C167.832 684.676 162.867 678.313 158.342 674.024C159.112 673.58 159.892 673.151 160.681 672.73C164.942 676.902 169.39 682.803 169.542 689.35C172.248 687.336 174.982 685.449 177.712 683.681C181.748 677.751 180.326 670.514 178.399 665.454C179.217 665.196 180.036 664.947 180.857 664.707C182.561 669.222 183.856 675.322 181.813 681.108C184.256 679.623 186.679 678.237 189.057 676.943C193.544 668.519 193.808 663.893 193.38 661.612C194.216 661.44 195.049 661.275 195.873 661.118C196.356 663.689 196.069 668.011 192.872 674.923C209.956 666.125 223.767 661.34 223.995 661.276L229.274 659.78L224.215 664.227C223.861 664.323 191.414 673.88 164.605 696.456C176.243 694.849 190.09 702.638 198.09 707.135C199.421 707.882 200.846 708.686 201.973 709.263C201.492 709.958 201.009 710.655 200.521 711.353C199.545 710.845 198.348 710.177 196.849 709.333C187.96 704.335 171.515 695.089 160.248 700.298C158.884 701.562 152.211 708.08 150.616 709.679C162.099 708.523 181.701 717.98 191.614 723.271C191.084 723.938 190.547 724.603 190.005 725.262C176.909 718.328 154.969 708.604 147.05 713.292C123.173 737.71 99.3955 764.194 99.3955 764.194" fill="#DE9C8C"/>
<path fill-rule="evenodd" clip-rule="evenodd" d="M-5.37892 480.655C-30.6948 480.655 -51.2886 460.044 -51.2886 434.708C-51.2886 409.372 -30.6948 388.759 -5.37892 388.759C19.9354 388.759 40.5308 409.372 40.5308 434.708C40.5308 460.044 19.9354 480.655 -5.37892 480.655" fill="white"/>
<path fill-rule="evenodd" clip-rule="evenodd" d="M539.452 163.326C514.139 163.326 493.542 142.713 493.542 117.377C493.542 92.0415 514.139 71.4287 539.452 71.4287C564.768 71.4287 585.363 92.0415 585.363 117.377C585.363 142.713 564.768 163.326 539.452 163.326" fill="white"/>
<path fill-rule="evenodd" clip-rule="evenodd" d="M152.628 161.251C152.296 161.251 151.959 161.128 151.658 160.867C150.193 159.598 148.672 158.328 147.149 157.095C146.301 156.41 146.027 154.932 146.537 153.793C147.047 152.654 148.147 152.287 148.994 152.972C150.551 154.229 152.1 155.525 153.601 156.824C154.429 157.543 154.67 159.033 154.133 160.149C153.793 160.863 153.215 161.251 152.628 161.251" fill="#99D7FF"/>
<path fill-rule="evenodd" clip-rule="evenodd" d="M9.17543 111.795H9.13598C5.70671 111.693 2.35331 111.64 -0.836207 111.64H-1.40522C-2.39455 111.64 -3.19572 110.563 -3.19572 109.235C-3.19572 107.906 -2.39455 106.829 -1.40522 106.829H-0.836207C2.37911 106.829 5.76134 106.881 9.21336 106.984C10.2042 107.014 10.9857 108.114 10.9659 109.441C10.9447 110.752 10.1465 111.795 9.17543 111.795M-27.2537 112.961C-28.1778 112.961 -28.9638 112.006 -29.0381 110.747C-29.1155 109.423 -28.3811 108.263 -27.3963 108.156C-23.9671 107.787 -20.3906 107.491 -16.7671 107.277C-15.7975 107.206 -14.9432 108.249 -14.8977 109.576C-14.8552 110.904 -15.6215 112.026 -16.6093 112.085C-20.1918 112.296 -23.7243 112.588 -27.108 112.952C-27.1566 112.958 -27.2067 112.961 -27.2537 112.961M35.0133 113.51C34.9647 113.51 34.9177 113.507 34.8676 113.502C31.4201 113.132 27.8816 112.811 24.3507 112.553C23.3629 112.48 22.6072 111.347 22.6603 110.018C22.7134 108.693 23.5343 107.707 24.5464 107.746C28.1077 108.009 31.6781 108.331 35.1544 108.706C36.1407 108.812 36.8766 109.971 36.7962 111.297C36.7218 112.556 35.9374 113.51 35.0133 113.51M60.7055 117.502C60.6144 117.502 60.5234 117.493 60.4308 117.473C57.0046 116.769 53.4949 116.122 50.0004 115.551C49.0202 115.39 48.3222 114.192 48.4405 112.87C48.5604 111.552 49.4602 110.627 50.4344 110.773C53.9653 111.352 57.5099 112.005 60.974 112.718C61.9512 112.919 62.6234 114.148 62.4732 115.461C62.3366 116.65 61.5734 117.502 60.7055 117.502M-52.8822 117.571C-53.7213 117.571 -54.4708 116.773 -54.6393 115.624C-54.8289 114.321 -54.1947 113.057 -53.2236 112.802C-49.8155 111.909 -46.2755 111.107 -42.6991 110.422C-41.7279 110.24 -40.8114 111.148 -40.6718 112.463C-40.5338 113.78 -41.212 114.998 -42.1923 115.185C-45.708 115.859 -49.1904 116.647 -52.5377 117.525C-52.653 117.555 -52.7684 117.571 -52.8822 117.571M86.0775 124.197C85.9348 124.197 85.7952 124.175 85.6526 124.13C82.3098 123.039 78.8578 122.007 75.3906 121.056C74.421 120.789 73.7959 119.519 73.9916 118.218C74.1904 116.913 75.1357 116.073 76.1068 116.339C79.6165 117.302 83.111 118.35 86.4978 119.452C87.4583 119.765 88.047 121.067 87.8164 122.357C87.6146 123.46 86.8832 124.197 86.0775 124.197M-77.8157 126.669C-78.5501 126.669 -79.2389 126.058 -79.5015 125.076C-79.8353 123.824 -79.3512 122.447 -78.4211 121.999C-75.1345 120.415 -71.7067 118.937 -68.2349 117.609C-67.2836 117.246 -66.2912 117.985 -66.0211 119.264C-65.7495 120.541 -66.3018 121.873 -67.2532 122.236C-70.6461 123.534 -73.9964 124.98 -77.2102 126.528C-77.4105 126.623 -77.6138 126.669 -77.8157 126.669M110.862 134.059C110.663 134.059 110.462 134.015 110.263 133.919C107.007 132.368 103.652 130.883 100.291 129.506C99.3454 129.117 98.8143 127.773 99.1026 126.502C99.3924 125.231 100.391 124.511 101.339 124.903C104.747 126.303 108.152 127.809 111.46 129.384C112.393 129.829 112.88 131.205 112.551 132.455C112.29 133.442 111.6 134.059 110.862 134.059M-101.22 141.306C-101.833 141.306 -102.431 140.882 -102.764 140.12C-103.268 138.975 -102.983 137.502 -102.13 136.826C-99.0923 134.423 -95.9119 132.139 -92.6814 130.031C-91.7892 129.453 -90.7194 129.951 -90.287 131.144C-89.856 132.341 -90.2263 133.782 -91.117 134.361C-94.2625 136.411 -97.3549 138.636 -100.312 140.973C-100.599 141.198 -100.912 141.306 -101.22 141.306M129.447 145.585C129.177 145.585 128.907 145.505 128.649 145.333C125.567 143.274 122.367 141.272 119.143 139.389C118.235 138.858 117.821 137.444 118.214 136.224C118.608 135.005 119.663 134.448 120.57 134.976C123.854 136.893 127.109 138.928 130.244 141.025C131.13 141.617 131.491 143.061 131.049 144.25C130.738 145.096 130.104 145.585 129.447 145.585M-122.018 161.838C-122.505 161.838 -122.994 161.572 -123.346 161.05C-124.009 160.066 -123.953 158.543 -123.222 157.65C-120.578 154.43 -117.806 151.327 -114.982 148.43C-114.195 147.623 -113.072 147.825 -112.471 148.879C-111.87 149.935 -112.02 151.444 -112.808 152.251C-115.551 155.069 -118.246 158.084 -120.815 161.215C-121.159 161.632 -121.589 161.838 -122.018 161.838M-139.635 187.233C-140.025 187.233 -140.419 187.062 -140.749 186.709C-141.523 185.882 -141.652 184.367 -141.036 183.33C-138.823 179.593 -136.496 175.909 -134.116 172.378C-133.452 171.387 -132.317 171.318 -131.585 172.208C-130.851 173.099 -130.795 174.621 -131.458 175.608C-133.789 179.064 -136.068 182.67 -138.231 186.324C-138.585 186.922 -139.108 187.233 -139.635 187.233M-154.129 215.966C-154.431 215.966 -154.736 215.865 -155.015 215.65C-155.874 214.993 -156.176 213.523 -155.684 212.369C-153.929 208.235 -152.049 204.116 -150.096 200.124C-149.551 199.015 -148.439 198.707 -147.615 199.434C-146.789 200.163 -146.559 201.657 -147.102 202.766C-149.014 206.674 -150.854 210.707 -152.574 214.753C-152.901 215.53 -153.508 215.966 -154.129 215.966M-165.162 247.349C-165.373 247.349 -165.588 247.299 -165.798 247.193C-166.723 246.719 -167.187 245.331 -166.835 244.087C-165.578 239.642 -164.191 235.182 -162.717 230.832C-162.306 229.625 -161.245 229.091 -160.344 229.64C-159.443 230.192 -159.047 231.616 -159.456 232.828C-160.898 237.083 -162.256 241.448 -163.487 245.799C-163.758 246.759 -164.44 247.349 -165.162 247.349M-172.403 280.661C-172.524 280.661 -172.645 280.646 -172.767 280.611C-173.736 280.342 -174.359 279.07 -174.158 277.768C-173.444 273.124 -172.598 268.425 -171.646 263.806C-171.382 262.522 -170.397 261.774 -169.442 262.128C-168.489 262.481 -167.929 263.807 -168.195 265.086C-169.125 269.607 -169.952 274.202 -170.652 278.743C-170.826 279.881 -171.571 280.661 -172.403 280.661M-175.56 315.097C-175.585 315.097 -175.607 315.097 -175.632 315.095C-176.619 315.042 -177.39 313.925 -177.352 312.597C-177.213 307.851 -176.947 303.028 -176.563 298.266C-176.457 296.944 -175.574 295.989 -174.589 296.132C-173.606 296.275 -172.896 297.462 -173.002 298.784C-173.378 303.437 -173.636 308.149 -173.771 312.786C-173.811 314.081 -174.604 315.097 -175.56 315.097M-174.403 349.762C-175.289 349.762 -176.058 348.881 -176.175 347.671C-176.283 346.58 -176.383 345.492 -176.477 344.394C-176.789 340.743 -177.031 337.03 -177.195 333.357C-177.254 332.032 -176.503 330.891 -175.515 330.811C-174.539 330.738 -173.68 331.742 -173.621 333.066C-173.459 336.653 -173.222 340.279 -172.917 343.848C-172.826 344.917 -172.729 345.982 -172.626 347.044C-172.497 348.362 -173.186 349.569 -174.166 349.744C-174.246 349.756 -174.325 349.762 -174.403 349.762M-168.744 383.612C-169.501 383.612 -170.204 382.963 -170.45 381.944C-171.541 377.397 -172.515 372.736 -173.351 368.089C-173.583 366.797 -172.993 365.498 -172.032 365.187C-171.067 364.876 -170.101 365.667 -169.869 366.959C-169.054 371.49 -168.102 376.035 -167.04 380.468C-166.737 381.734 -167.254 383.089 -168.195 383.496C-168.379 383.574 -168.562 383.612 -168.744 383.612M-158.634 415.54C-159.274 415.54 -159.892 415.08 -160.215 414.27C-161.896 410.05 -163.482 405.703 -164.922 401.353C-165.326 400.138 -164.919 398.716 -164.016 398.175C-163.113 397.632 -162.053 398.18 -161.651 399.393C-160.242 403.64 -158.699 407.881 -157.058 411.998C-156.589 413.169 -156.918 414.627 -157.79 415.254C-158.059 415.447 -158.349 415.54 -158.634 415.54M-144.562 444.631C-145.098 444.631 -145.629 444.309 -145.979 443.696C-148.169 439.893 -150.275 435.977 -152.24 432.051C-152.791 430.947 -152.574 429.454 -151.753 428.711C-150.933 427.973 -149.818 428.263 -149.266 429.364C-147.345 433.203 -145.286 437.035 -143.146 440.754C-142.541 441.805 -142.683 443.318 -143.469 444.127C-143.794 444.467 -144.18 444.631 -144.562 444.631M-127.271 470.405C-127.718 470.405 -128.165 470.181 -128.511 469.733C-131.088 466.411 -133.606 462.969 -135.996 459.505C-136.669 458.53 -136.626 457.007 -135.899 456.106C-135.177 455.203 -134.042 455.256 -133.368 456.235C-131.024 459.63 -128.557 463.006 -126.03 466.263C-125.317 467.185 -125.294 468.708 -125.979 469.665C-126.331 470.159 -126.801 470.405 -127.271 470.405M-107.514 492.768C-107.884 492.768 -108.26 492.615 -108.58 492.296C-111.457 489.429 -114.286 486.464 -116.988 483.482C-117.751 482.637 -117.862 481.12 -117.236 480.097C-116.607 479.069 -115.477 478.92 -114.712 479.764C-112.057 482.697 -109.277 485.611 -106.447 488.43C-105.653 489.222 -105.485 490.73 -106.074 491.796C-106.427 492.433 -106.966 492.768 -107.514 492.768M-85.486 511.026C-85.7728 511.026 -86.0656 510.933 -86.3357 510.737C-90.1823 507.947 -93.3217 505.63 -95.666 503.85C-96.5264 503.197 -96.8299 501.729 -96.3428 500.573C-95.8542 499.413 -94.7602 499.01 -93.9029 499.662C-91.5782 501.426 -88.4616 503.729 -84.6332 506.502C-83.7638 507.133 -83.4375 508.593 -83.9094 509.764C-84.2326 510.569 -84.8487 511.026 -85.486 511.026" fill="#99D7FF"/>
<mask id="mask0" mask-type="alpha" maskUnits="userSpaceOnUse" x="-193" y="752" width="686" height="53">
<path fill-rule="evenodd" clip-rule="evenodd" d="M-193 752.199H492.656V804.892H-193V752.199Z" fill="white"/>
</mask>
<g mask="url(#mask0)">
<path fill-rule="evenodd" clip-rule="evenodd" d="M492.656 778.545C492.656 793.097 339.168 804.892 149.827 804.892C-39.5113 804.892 -193 793.097 -193 778.545C-193 763.996 -39.5113 752.199 149.827 752.199C339.168 752.199 492.656 763.996 492.656 778.545" fill="#F78500"/>
</g>
<path fill-rule="evenodd" clip-rule="evenodd" d="M539.452 511.945C514.136 511.945 493.542 491.332 493.542 465.997C493.542 440.661 514.136 420.048 539.452 420.048C564.768 420.048 585.363 440.661 585.363 465.997C585.363 491.332 564.768 511.945 539.452 511.945" fill="white"/>
<path fill-rule="evenodd" clip-rule="evenodd" d="M579.769 465.997C579.769 488.282 561.72 506.348 539.452 506.348C517.186 506.348 499.134 488.282 499.134 465.997C499.134 443.71 517.186 425.646 539.452 425.646C561.72 425.646 579.769 443.71 579.769 465.997" fill="#99D7FF"/>
<path fill-rule="evenodd" clip-rule="evenodd" d="M539.452 457.258C535.816 457.258 532.866 454.308 532.866 450.666C532.866 447.026 535.816 444.075 539.452 444.075C543.091 444.075 546.037 447.026 546.037 450.666C546.037 454.308 543.091 457.258 539.452 457.258M539.669 440.116C532.085 440.116 525.941 446.268 525.941 453.857C525.941 461.444 539.669 491.876 539.669 491.876C539.669 491.876 553.395 461.444 553.395 453.857C553.395 446.268 547.25 440.116 539.669 440.116" fill="white"/>
<path fill-rule="evenodd" clip-rule="evenodd" d="M-5.37892 334.782C-30.6948 334.782 -51.2886 314.169 -51.2886 288.833C-51.2886 263.499 -30.6948 242.885 -5.37892 242.885C19.9354 242.885 40.5308 263.499 40.5308 288.833C40.5308 314.169 19.9354 334.782 -5.37892 334.782" fill="white"/>
<path fill-rule="evenodd" clip-rule="evenodd" d="M34.9382 289.867C34.9382 312.154 16.8875 330.218 -5.37847 330.218C-27.6459 330.218 -45.6966 312.154 -45.6966 289.867C-45.6966 267.583 -27.6459 249.517 -5.37847 249.517C16.8875 249.517 34.9382 267.583 34.9382 289.867" fill="#99D7FF"/>
<path fill-rule="evenodd" clip-rule="evenodd" d="M-27.9292 269.655C-26.16 273.518 -16.6931 293.41 -7.45984 297.953C-7.0805 298.14 2.36364 299.414 2.74905 299.598C13.0702 304.508 13.7455 304.33 13.7455 305.225C13.7455 305.972 14.0641 307.084 13.0581 307.383C11.2494 307.922 5.29521 309.076 -11.3094 308.335C-11.6523 308.32 -11.9664 308.121 -12.1243 307.814C-19.7915 292.869 -28.2236 287.655 -28.2236 290.975C-28.2236 308.159 -27.8154 308.576 -29.1871 308.576C-29.8715 308.47 -31.5603 308.983 -31.668 307.694C-32.0261 303.401 -33.6649 284.812 -35.3037 283.172C-37.1139 281.362 -38.7633 270.709 -28.9626 269.105C-28.5331 269.034 -28.1098 269.258 -27.9292 269.655" fill="white"/>
<path fill-rule="evenodd" clip-rule="evenodd" d="M14.8418 298.616C4.64805 297.046 5.14423 297.174 4.90145 297.055C-4.33329 292.51 -13.7987 272.618 -15.5694 268.755C-15.75 268.36 -16.1718 268.135 -16.6013 268.205C-20.7209 268.879 -22.8119 271.153 -23.7238 273.697C-20.8969 279.237 -17.4464 285.018 -13.9352 289.422C-11.3709 290.57 -8.80044 293.193 -6.55321 296.089C6.00003 298 0.516243 296.355 13.0452 302.249C14.5686 302.381 15.7689 303.666 15.7689 305.225C15.7249 306.207 15.8903 306.741 15.5352 307.604C21.5228 307.4 24.2859 306.82 25.4194 306.483C26.43 306.181 26.1189 304.992 26.1068 304.325C26.1068 303.289 15.1058 298.656 14.8418 298.616" fill="white"/>
<path fill-rule="evenodd" clip-rule="evenodd" d="M579.769 117.377C579.769 139.662 561.72 157.728 539.452 157.728C517.186 157.728 499.134 139.662 499.134 117.377C499.134 95.0909 517.186 77.0264 539.452 77.0264C561.72 77.0264 579.769 95.0909 579.769 117.377" fill="#99D7FF"/>
<path fill-rule="evenodd" clip-rule="evenodd" d="M34.9382 433.897C34.9382 456.184 16.8875 474.248 -5.37847 474.248C-27.6459 474.248 -45.6966 456.184 -45.6966 433.897C-45.6966 411.612 -27.6459 393.546 -5.37847 393.546C16.8875 393.546 34.9382 411.612 34.9382 433.897" fill="#99D7FF"/>
<path fill-rule="evenodd" clip-rule="evenodd" d="M-5.32718 431.047C-6.50162 429.637 -6.31044 427.54 -4.90231 426.364C-3.49115 425.189 -1.39718 425.382 -0.222729 426.79C0.951719 428.202 0.762047 430.299 -0.649111 431.473C-2.05875 432.649 -4.15273 432.459 -5.32718 431.047M5.62978 430.646L-2.95552 420.334C-5.04343 417.827 -8.76707 417.486 -11.2738 419.576L-38.4955 442.277L-22.3521 461.672L4.87261 438.972C7.3778 436.881 7.71769 433.154 5.62978 430.646" fill="white"/>
<path fill-rule="evenodd" clip-rule="evenodd" d="M-1.49519 427.019C-1.3647 426.993 11.5588 424.501 16.381 420.478C20.5553 416.999 20.8527 409.986 13.061 410.815C6.95658 411.466 1.85517 420.698 -0.0552053 424.638C-0.695537 425.957 -2.68482 424.988 -2.04752 423.67C0.525949 418.364 5.87925 409.351 12.8258 408.611C22.5673 407.574 23.9223 417.076 17.7997 422.18C12.5345 426.571 -0.528626 429.092 -1.08247 429.197C-2.52094 429.468 -2.93518 427.294 -1.49519 427.019" fill="white"/>
<path fill-rule="evenodd" clip-rule="evenodd" d="M539.452 335.816C514.139 335.816 493.542 315.204 493.542 289.867C493.542 264.533 514.139 243.918 539.452 243.918C564.768 243.918 585.363 264.533 585.363 289.867C585.363 315.204 564.768 335.816 539.452 335.816" fill="white"/>
<path fill-rule="evenodd" clip-rule="evenodd" d="M579.769 289.867C579.769 312.154 561.72 330.218 539.452 330.218C517.186 330.218 499.134 312.154 499.134 289.867C499.134 267.583 517.186 249.517 539.452 249.517C561.72 249.517 579.769 267.583 579.769 289.867" fill="#99D7FF"/>
<path fill-rule="evenodd" clip-rule="evenodd" d="M376.299 217.71H165.197C136.607 217.71 113.432 240.904 113.432 269.519V713.716C113.432 742.331 136.607 765.527 165.197 765.527H376.299C404.886 765.527 428.061 742.331 428.061 713.716V269.519C428.061 240.904 404.886 217.71 376.299 217.71" fill="#331579"/>
<path fill-rule="evenodd" clip-rule="evenodd" d="M165.197 751.49C144.386 751.49 127.455 734.852 127.455 714.399V278.231C127.455 257.779 144.386 241.139 165.197 241.139H376.298C397.109 241.139 414.037 257.779 414.037 278.231V714.399C414.037 734.852 397.109 751.49 376.298 751.49H165.197Z" fill="#91AAFE"/>
<path fill-rule="evenodd" clip-rule="evenodd" d="M369.793 237.631H169.378C164.858 237.631 161.195 233.966 161.195 229.443C161.195 224.922 164.858 221.258 169.378 221.258H369.793C374.314 221.258 377.973 224.922 377.973 229.443C377.973 233.966 374.314 237.631 369.793 237.631" fill="#190B3D"/>
<path fill-rule="evenodd" clip-rule="evenodd" d="M372.203 229.589C372.203 233.264 369.227 236.243 365.558 236.243C361.886 236.243 358.911 233.264 358.911 229.589C358.911 225.916 361.886 222.938 365.558 222.938C369.227 222.938 372.203 225.916 372.203 229.589" fill="#331579"/>
<path fill-rule="evenodd" clip-rule="evenodd" d="M337.291 232.441H219.626C218.053 232.441 216.778 231.164 216.778 229.589C216.778 228.016 218.053 226.739 219.626 226.739H337.291C338.865 226.739 340.139 228.016 340.139 229.589C340.139 231.164 338.865 232.441 337.291 232.441" fill="#0E061E"/>
<mask id="mask1" mask-type="alpha" maskUnits="userSpaceOnUse" x="-193" y="0" width="786" height="805">
<path fill-rule="evenodd" clip-rule="evenodd" d="M-193 804.891H592.375V0.713867H-193V804.891Z" fill="white"/>
</mask>
<g mask="url(#mask1)">
<path fill-rule="evenodd" clip-rule="evenodd" d="M149.827 644.069H391.996V287.925H149.827V644.069Z" fill="white"/>
<path fill-rule="evenodd" clip-rule="evenodd" d="M257.609 448.743H377.973V303.128H257.609V448.743Z" fill="#FFF7CF"/>
<path fill-rule="evenodd" clip-rule="evenodd" d="M257.609 615.558H377.973V469.941H257.609V615.558Z" fill="#FFF7CF"/>
<path fill-rule="evenodd" clip-rule="evenodd" d="M167.041 327.691H243.585V313.071H167.041V327.691Z" fill="#FFF7CF"/>
<path fill-rule="evenodd" clip-rule="evenodd" d="M167.041 357.516H243.585V342.896H167.041V357.516Z" fill="#FFF7CF"/>
<path fill-rule="evenodd" clip-rule="evenodd" d="M167.041 387.341H243.585V372.721H167.041V387.341Z" fill="#FFF7CF"/>
<path fill-rule="evenodd" clip-rule="evenodd" d="M167.041 488.511H243.585V473.891H167.041V488.511Z" fill="#FFF7CF"/>
<path fill-rule="evenodd" clip-rule="evenodd" d="M167.041 518.336H243.585V503.716H167.041V518.336Z" fill="#FFF7CF"/>
<path fill-rule="evenodd" clip-rule="evenodd" d="M167.041 548.161H243.585V533.541H167.041V548.161Z" fill="#FFF7CF"/>
<path fill-rule="evenodd" clip-rule="evenodd" d="M252.203 664.17C252.203 666.552 250.274 668.483 247.894 668.483C245.514 668.483 243.584 666.552 243.584 664.17C243.584 661.789 245.514 659.857 247.894 659.857C250.274 659.857 252.203 661.789 252.203 664.17" fill="#331579"/>
<path fill-rule="evenodd" clip-rule="evenodd" d="M268.272 664.17C268.272 666.552 266.343 668.483 263.962 668.483C261.583 668.483 259.653 666.552 259.653 664.17C259.653 661.789 261.583 659.857 263.962 659.857C266.343 659.857 268.272 661.789 268.272 664.17" fill="#331579"/>
<path fill-rule="evenodd" clip-rule="evenodd" d="M284.34 664.17C284.34 666.552 282.412 668.483 280.031 668.483C277.652 668.483 275.722 666.552 275.722 664.17C275.722 661.789 277.652 659.857 280.031 659.857C282.412 659.857 284.34 661.789 284.34 664.17" fill="#331579"/>
<path fill-rule="evenodd" clip-rule="evenodd" d="M367.224 279.45C367.224 281.639 368.996 283.413 371.183 283.413C373.371 283.413 375.143 281.639 375.143 279.45C375.143 277.262 373.371 275.488 371.183 275.488C368.996 275.488 367.224 277.262 367.224 279.45" fill="#331579"/>
<path fill-rule="evenodd" clip-rule="evenodd" d="M369.041 279.45C369.041 280.633 370.001 281.595 371.183 281.595C372.365 281.595 373.326 280.633 373.326 279.45C373.326 278.267 372.365 277.308 371.183 277.308C370.001 277.308 369.041 278.267 369.041 279.45" fill="#270F5B"/>
<path fill-rule="evenodd" clip-rule="evenodd" d="M350.005 279.45C350.005 281.639 351.777 283.413 353.964 283.413C356.152 283.413 357.924 281.639 357.924 279.45C357.924 277.262 356.152 275.488 353.964 275.488C351.777 275.488 350.005 277.262 350.005 279.45" fill="#331579"/>
<path fill-rule="evenodd" clip-rule="evenodd" d="M351.822 279.45C351.822 280.633 352.782 281.595 353.964 281.595C355.147 281.595 356.104 280.633 356.104 279.45C356.104 278.267 355.147 277.308 353.964 277.308C352.782 277.308 351.822 278.267 351.822 279.45" fill="#270F5B"/>
<path fill-rule="evenodd" clip-rule="evenodd" d="M351.508 268.962L344.12 256.185C343.763 255.575 343.797 254.861 344.203 254.275C344.608 253.689 345.317 253.341 346.097 253.341H375.441C375.854 253.341 376.189 253.636 376.189 253.999C376.189 254.363 375.854 254.658 375.441 254.658H346.097C345.728 254.658 345.542 254.872 345.476 254.963C345.411 255.056 345.281 255.3 345.45 255.587L352.839 268.364C352.963 268.579 353.209 268.713 353.485 268.713H372.683L377.543 251.633C378.115 249.626 379.971 248.223 382.054 248.223H387.468C387.881 248.223 388.215 248.557 388.215 248.97C388.215 249.383 387.881 249.718 387.468 249.718H382.054C380.634 249.718 379.368 250.673 378.98 252.041L372.618 274.391H351.787C351.371 274.391 351.039 274.056 351.039 273.644C351.039 273.231 351.371 272.895 351.787 272.895H371.492L372.307 270.03H353.485C352.646 270.03 351.887 269.621 351.508 268.962" fill="#331579"/>
<path fill-rule="evenodd" clip-rule="evenodd" d="M328.169 265.047C328.169 273.001 321.723 279.45 313.778 279.45C305.829 279.45 299.386 273.001 299.386 265.047C299.386 257.092 305.829 250.644 313.778 250.644C321.723 250.644 328.169 257.092 328.169 265.047" fill="#FD5E5A"/>
<path fill-rule="evenodd" clip-rule="evenodd" d="M310.767 260.983H309.225C310.344 256.016 315.726 256.294 317.437 259.093C318.419 260.699 318.22 262.825 316.057 264.098C318.559 265.114 319.644 267.972 318.152 270.539C316.178 273.931 309.781 274.299 308.722 268.549H310.201C311.771 274.466 319.46 270.606 316.843 266.555C315.975 265.21 314.557 264.997 312.913 264.911V263.523C314.626 263.523 316.427 262.695 316.427 260.994C316.427 258.851 313.582 257.864 311.967 259.117C311.495 259.486 311.096 260.107 310.767 260.983" fill="white"/>
<path fill-rule="evenodd" clip-rule="evenodd" d="M210.279 686.759H391.996V678.57H210.279V686.759Z" fill="#8D75BB"/>
<path fill-rule="evenodd" clip-rule="evenodd" d="M210.279 705.035H391.996V696.846H210.279V705.035Z" fill="#8D75BB"/>
<path fill-rule="evenodd" clip-rule="evenodd" d="M-5.37891 334.782C-30.6948 334.782 -51.2886 314.169 -51.2886 288.834C-51.2886 263.499 -30.6948 242.885 -5.37891 242.885C19.9354 242.885 40.5308 263.499 40.5308 288.834C40.5308 314.169 19.9354 334.782 -5.37891 334.782M-5.37891 235.867C-34.6066 235.867 -58.3004 259.581 -58.3004 288.834C-58.3004 318.086 -34.6066 341.8 -5.37891 341.8C23.8488 341.8 47.5426 318.086 47.5426 288.834C47.5426 259.581 23.8488 235.867 -5.37891 235.867" fill="#7FCDFF"/>
<path fill-rule="evenodd" clip-rule="evenodd" d="M539.452 335.816C514.139 335.816 493.542 315.205 493.542 289.867C493.542 264.533 514.139 243.919 539.452 243.919C564.768 243.919 585.363 264.533 585.363 289.867C585.363 315.205 564.768 335.816 539.452 335.816M539.452 236.901C510.224 236.901 486.53 260.615 486.53 289.867C486.53 319.12 510.224 342.834 539.452 342.834C568.68 342.834 592.375 319.12 592.375 289.867C592.375 260.615 568.68 236.901 539.452 236.901" fill="#7FCDFF"/>
<path fill-rule="evenodd" clip-rule="evenodd" d="M539.452 163.326C514.139 163.326 493.542 142.713 493.542 117.378C493.542 92.0417 514.139 71.4289 539.452 71.4289C564.768 71.4289 585.363 92.0417 585.363 117.378C585.363 142.713 564.768 163.326 539.452 163.326M539.452 64.4111C510.224 64.4111 486.53 88.1251 486.53 117.378C486.53 146.63 510.224 170.344 539.452 170.344C568.68 170.344 592.375 146.63 592.375 117.378C592.375 88.1251 568.68 64.4111 539.452 64.4111" fill="#7FCDFF"/>
<path fill-rule="evenodd" clip-rule="evenodd" d="M539.452 511.945C514.136 511.945 493.542 491.332 493.542 465.996C493.542 440.66 514.136 420.048 539.452 420.048C564.768 420.048 585.363 440.66 585.363 465.996C585.363 491.332 564.768 511.945 539.452 511.945M539.452 413.03C510.224 413.03 486.53 436.744 486.53 465.996C486.53 495.249 510.224 518.963 539.452 518.963C568.68 518.963 592.375 495.249 592.375 465.996C592.375 436.744 568.68 413.03 539.452 413.03" fill="#7FCDFF"/>
<path fill-rule="evenodd" clip-rule="evenodd" d="M-5.37891 480.655C-30.6948 480.655 -51.2886 460.044 -51.2886 434.708C-51.2886 409.372 -30.6948 388.759 -5.37891 388.759C19.9354 388.759 40.5308 409.372 40.5308 434.708C40.5308 460.044 19.9354 480.655 -5.37891 480.655M-5.37891 381.742C-34.6066 381.742 -58.3004 405.456 -58.3004 434.708C-58.3004 463.961 -34.6066 487.673 -5.37891 487.673C23.8488 487.673 47.5426 463.961 47.5426 434.708C47.5426 405.456 23.8488 381.742 -5.37891 381.742" fill="#7FCDFF"/>
<path fill-rule="evenodd" clip-rule="evenodd" d="M174.286 343.958C173.848 343.958 173.403 343.898 172.961 343.777L43.4611 308.331C40.7253 307.583 39.0956 304.697 39.8285 301.889C40.5584 299.081 43.3701 297.411 46.1074 298.161L175.605 333.608C178.344 334.357 179.97 337.241 179.239 340.05C178.627 342.404 176.553 343.958 174.286 343.958" fill="#7FCDFF"/>
<path fill-rule="evenodd" clip-rule="evenodd" d="M186.434 454.007H186.416L44.7781 453.534C41.9375 453.525 39.6448 451.162 39.6539 448.253C39.663 445.353 41.9618 443.008 44.7932 443.008H44.8099L186.449 443.48C189.288 443.491 191.586 445.854 191.573 448.761C191.564 451.661 189.264 454.007 186.434 454.007" fill="#7FCDFF"/>
<path fill-rule="evenodd" clip-rule="evenodd" d="M525.105 301.975C525.387 301.965 528.326 302.063 528.326 302.242V271.373C536.896 269.982 545.427 268.596 554.05 267.196V268.129C554.05 279.106 553.967 290.084 554.09 301.059C554.143 305.644 551.028 307.657 547.897 308.218C541.911 309.294 538.352 304.101 541.826 300.361C544.324 297.671 547.122 297.22 550.583 297.981V277.019C544.336 278.163 538.109 279.305 531.809 280.459C531.809 280.767 531.762 297.381 531.731 305.4C531.716 309.713 528.818 312.329 524.757 312.525C515.36 312.981 517.023 302.285 525.105 301.975" fill="white"/>
<path fill-rule="evenodd" clip-rule="evenodd" d="M169.171 332.814H163.092L138.892 228.491L147.703 228.028L169.171 332.814Z" fill="#1F1A15"/>
<path fill-rule="evenodd" clip-rule="evenodd" d="M205.209 2.09574C205.209 2.09574 184.36 -1.46401 177.066 12.9481C169.775 27.3587 170.464 59.9477 180.389 68.3869C190.314 76.8276 188.66 98.4443 197.355 104.827C206.051 111.21 228.203 114.091 228.203 99.0639C228.203 99.0639 217.407 100.894 214.671 91.5374C214.671 91.5374 230.168 101.445 237.74 90.3528C245.313 79.2636 229.045 75.5929 229.045 75.5929C229.045 75.5929 235.438 78.732 225.901 77.0858C216.367 75.438 222.59 73.0568 222.59 64.9881C222.59 56.9225 228.485 62.622 226.801 47.7999C225.118 32.9762 212.313 1.58546 205.209 2.09574" fill="#0E1B29"/>
<path fill-rule="evenodd" clip-rule="evenodd" d="M154.877 320.232L152.853 334.359C152.853 334.359 149.09 345.032 149.09 346.601C149.09 347.639 150.862 356.06 155.571 357.48C157.986 358.209 167.875 347.407 169.192 342.52C170.729 336.811 166.969 318.976 166.969 318.976L154.877 320.232Z" fill="#FC7575"/>
<path fill-rule="evenodd" clip-rule="evenodd" d="M187.356 317.719C187.356 317.719 184.67 338.44 184.67 341.579C184.67 344.717 184.244 349.225 186.013 350.996C187.782 352.767 203.668 347.543 203.668 341.892C203.668 336.241 200.219 317.719 200.219 317.719H187.356Z" fill="#FC7575"/>
<path fill-rule="evenodd" clip-rule="evenodd" d="M221.672 132.463C221.672 118.315 221.087 72.3014 221.087 72.3014C221.087 72.3014 212.727 66.6322 195.998 66.6322C190.616 66.6322 185.669 65.7104 180.314 66.6853C169.011 68.7431 158.739 73.5816 158.739 73.5816C158.739 73.5816 162.207 116.994 156.786 146.634C155.828 151.87 159.919 156.675 165.236 156.675H218.1C221.666 156.675 224.374 153.468 223.79 149.948C222.546 142.435 221.672 136.135 221.672 132.463" fill="#FFDA88"/>
<path fill-rule="evenodd" clip-rule="evenodd" d="M162.129 155.758C153.559 162.403 151.728 164.692 149.288 167.687C130.246 191.076 135.73 222.836 144.384 221.643C153.037 220.451 170.923 217.35 184.772 220.237C198.618 223.123 229.774 222.257 232.657 210.998C234.581 203.5 224.336 177.396 218.794 156.675L162.129 155.758Z" fill="#464A7F"/>
<path fill-rule="evenodd" clip-rule="evenodd" d="M191.149 185.011L184.67 195.189C181.485 202.488 183.345 219.965 183.345 219.965L154.878 218.522L153.523 191.677L191.149 185.011Z" fill="#35385F"/>
<path fill-rule="evenodd" clip-rule="evenodd" d="M186.212 194.54C186.212 194.54 202.369 192.807 208.428 198.871C214.485 204.935 202.944 287.511 204.388 292.131C205.831 296.751 212.754 296.174 208.714 300.216C204.675 304.258 203.668 307 205.54 308.877C207.417 310.753 208.136 313.497 206.407 315.23C204.675 316.961 204.1 321.581 204.1 321.581H184.763C184.763 321.581 183.329 309.743 183.329 307.722C183.329 305.7 181.019 299.928 181.019 299.928C181.019 299.928 188.221 296.169 184.763 292.71C181.305 289.247 184.763 284.047 184.763 276.539C184.763 269.034 174.097 195.983 186.212 194.54" fill="#6B6E98"/>
<path fill-rule="evenodd" clip-rule="evenodd" d="M137.259 194.31C142.849 188.716 151.885 188.019 160.825 194.31C169.77 200.604 166.596 216.194 166.596 230.344C166.596 244.49 165.672 279.427 167.143 283.757C168.617 288.088 173.231 292.421 171.5 297.04C169.77 301.66 168.902 300.696 171.882 303.681C174.864 306.664 173.231 308.877 173.231 312.054C173.231 315.229 171.788 325.046 171.788 325.046H153.325C153.325 325.046 152.46 307.433 147.845 300.504C143.228 293.575 146.692 278.561 146.692 276.25C146.692 273.942 140.922 271.053 140.922 260.948C140.922 250.843 134.221 197.351 137.259 194.31" fill="#6B6E98"/>
<path fill-rule="evenodd" clip-rule="evenodd" d="M159.631 73.5811C159.631 73.5811 156.344 79.3277 151.73 92.3214C147.116 105.315 154.877 156.804 154.877 165.466C154.877 174.129 165.731 185.011 165.731 185.011L174.963 174.618L168.904 137.081L159.631 73.5811Z" fill="#FD5E5A"/>
<path fill-rule="evenodd" clip-rule="evenodd" d="M221.088 72.3013C221.088 72.3013 234.392 75.5831 238.451 94.0622C242.512 112.54 245.813 155.851 244.542 161.049C243.273 166.244 209.811 182.315 209.811 182.315L206.984 176.638C206.984 176.638 232.362 154.695 232.362 151.519C232.362 148.344 221.499 108.596 221.499 108.596L221.088 72.3013Z" fill="#FD5E5A"/>
<path fill-rule="evenodd" clip-rule="evenodd" d="M118.706 138.238L126.207 191.515L219.677 188.189L217.827 134.777L118.706 138.238Z" fill="#241145"/>
<path fill-rule="evenodd" clip-rule="evenodd" d="M168.676 343.893C159.963 349.414 153.484 348.834 149.096 346.728C149.211 348.19 151.015 356.107 155.571 357.48C157.781 358.147 166.241 349.17 168.676 343.893" fill="#ED1E79"/>
<path fill-rule="evenodd" clip-rule="evenodd" d="M203.668 341.892C203.668 340.636 203.496 338.745 203.232 336.562C198.205 341.087 191.491 344.065 184.999 337.424C184.797 339.379 184.67 340.896 184.67 341.579C184.67 344.717 184.244 349.226 186.013 350.996C187.782 352.767 203.668 347.543 203.668 341.892" fill="#ED1E79"/>
<path fill-rule="evenodd" clip-rule="evenodd" d="M205.472 45.2263C205.472 45.2263 204.746 46.8224 203.644 49.3221C199.829 57.9846 202.257 71.2699 202.45 73.5813C202.835 78.2208 200.357 87.7139 200.357 87.7139C200.357 87.7139 182.229 75.021 181.204 66.6865L191.033 36.5532L205.472 45.2263Z" fill="#FC7575"/>
<path fill-rule="evenodd" clip-rule="evenodd" d="M191.034 36.5532L205.473 45.2263C205.473 45.2263 204.743 46.8255 203.645 49.3221C198.564 47.9189 190.806 45.3554 189.122 42.4137L191.034 36.5532Z" fill="#FD5E5A"/>
<path fill-rule="evenodd" clip-rule="evenodd" d="M194.525 11.9775L216.331 24.022C216.331 24.022 220.857 24.1237 220.857 19.0803C220.857 14.0353 215.302 9.09657 209.645 6.21263C203.987 3.33173 196.893 2.08643 196.893 2.08643L194.525 11.9775Z" fill="#0E1B29"/>
<path fill-rule="evenodd" clip-rule="evenodd" d="M202.444 6.521C202.444 6.521 210.879 7.96221 213.143 11.9776C215.403 15.9914 216.02 25.565 218.283 27.8294C220.546 30.0937 222.518 30.5918 222.518 30.5918C222.518 30.5918 223.118 31.6382 220.857 32.7711C218.593 33.9025 220.305 35.1387 221.713 35.1387C223.118 35.1387 221.936 37.813 220.857 38.1244C220.857 38.1244 222.244 38.5344 221.986 39.8739C221.731 41.2118 221.062 41.4685 221.062 41.4685C221.062 41.4685 220.993 43.218 221.713 44.8657C222.433 46.5135 220.684 51.402 209.645 49.241C209.645 49.241 193.236 45.3805 192.26 40.7486C191.285 36.1167 183.986 19.2778 190.207 13.0543C196.427 6.82777 202.444 6.521 202.444 6.521" fill="#FC7575"/>
<path fill-rule="evenodd" clip-rule="evenodd" d="M194.833 1.83187C194.833 1.83187 197.405 -0.847053 207.69 2.087C217.976 5.02106 220.433 16.6646 220.433 16.6646C220.433 16.6646 213.809 12.1831 209.646 12.1831C205.479 12.1831 196.055 10.5991 194.525 9.06982C192.995 7.539 194.833 1.83187 194.833 1.83187" fill="#1B3753"/>
<path fill-rule="evenodd" clip-rule="evenodd" d="M196.181 1.14062C197.618 1.14062 206.713 11.2564 204.245 18.9773C201.777 26.6967 195.914 23.2493 192.21 25.3086C188.508 27.3679 192.927 36.8884 192.26 40.7489C191.594 44.6093 181.203 66.6861 181.203 66.6861C181.203 66.6861 172.463 20.0115 177.762 11.3643C183.062 2.717 196.181 1.14062 196.181 1.14062" fill="#1B3753"/>
<path fill-rule="evenodd" clip-rule="evenodd" d="M207.114 33.1052C207.114 34.2579 209.046 35.1918 211.43 35.1918C213.815 35.1918 215.747 34.2579 215.747 33.1052C215.747 31.9525 213.815 31.0186 211.43 31.0186C209.046 31.0186 207.114 31.9525 207.114 33.1052" fill="#FD5E5A"/>
<path fill-rule="evenodd" clip-rule="evenodd" d="M217.49 24.0215C217.49 24.0215 216.073 26.869 210.301 26.7384L217.49 24.0215Z" fill="#1B3753"/>
<path fill-rule="evenodd" clip-rule="evenodd" d="M215.747 22.6244C215.747 22.6244 213.605 21.3457 211.942 21.3457C210.279 21.3457 208.745 22.017 208.745 22.6244C208.745 22.6244 210.567 21.7618 212.007 21.9851C213.444 22.2098 214.118 23.3169 214.693 23.3169C215.268 23.3169 215.747 22.6244 215.747 22.6244" fill="#1B3753"/>
<path fill-rule="evenodd" clip-rule="evenodd" d="M191.789 33.028C191.789 33.028 199.786 51.5769 183.726 72.3006C167.663 93.0258 145.868 84.6337 142.934 76.2461C140.003 67.857 150.266 64.9882 150.266 64.9882C150.266 64.9882 148.307 74.4814 153.523 74.0304C158.739 73.5808 160.538 72.3507 158.442 62.1332C156.348 51.9171 163.926 56.0129 168.093 49.3217C172.262 42.632 168.093 37.5263 168.093 29.6216C168.093 21.717 177.763 11.3643 177.763 11.3643L191.789 33.028Z" fill="#1B3753"/>
<path fill-rule="evenodd" clip-rule="evenodd" d="M193.336 26.2342C193.336 26.2342 190.361 19.7495 188.971 21.1391C187.584 22.5286 186.89 32.1008 191.789 33.0287C196.685 33.955 193.336 26.2342 193.336 26.2342" fill="#FC7575"/>
<path fill-rule="evenodd" clip-rule="evenodd" d="M193.123 27.0244C193.123 27.0244 191.587 23.4905 190.754 24.3227C189.926 25.1549 190.82 30.7239 191.941 30.7239C193.058 30.7239 193.396 28.8058 193.123 27.0244" fill="#FD5E5A"/>
<path fill-rule="evenodd" clip-rule="evenodd" d="M215.964 26.9516C215.964 27.6153 215.662 28.1529 215.285 28.1529C214.909 28.1529 214.604 27.6153 214.604 26.9516C214.604 26.2895 214.909 25.7534 215.285 25.7534C215.662 25.7534 215.964 26.2895 215.964 26.9516" fill="#1B3753"/>
<path fill-rule="evenodd" clip-rule="evenodd" d="M466.399 534.928C466.399 534.928 447.668 540.874 444.91 545.323C442.151 549.772 432.264 579.155 429.733 581.686C427.205 584.218 409.335 585.709 405.2 586.646L414.68 603.104C414.68 603.104 433.953 603.502 439.356 603.104C444.755 602.706 466.399 534.928 466.399 534.928" fill="#50284C"/>
<path fill-rule="evenodd" clip-rule="evenodd" d="M497.926 538.834C497.926 538.834 527.627 567.566 523.021 600.018C523.021 600.018 516.354 588.596 503.705 590.856C503.705 590.856 497.786 578.388 496.029 570.564C494.272 562.737 497.926 538.834 497.926 538.834" fill="#885E84"/>
<path fill-rule="evenodd" clip-rule="evenodd" d="M474.797 799.186H480.876L505.077 694.865L496.265 694.4L474.797 799.186Z" fill="#1F1A15"/>
<path fill-rule="evenodd" clip-rule="evenodd" d="M573.421 801.068H567.342L543.142 696.745L551.953 696.282L573.421 801.068Z" fill="#1F1A15"/>
<path fill-rule="evenodd" clip-rule="evenodd" d="M410.751 789.809H404.672L380.471 685.486L389.283 685.022L410.751 789.809Z" fill="#1F1A15"/>
<path fill-rule="evenodd" clip-rule="evenodd" d="M330.007 796.893H336.085L360.286 692.569L351.478 692.105L330.007 796.893Z" fill="#1F1A15"/>
<path fill-rule="evenodd" clip-rule="evenodd" d="M334.511 614.075V690.807C334.511 696.866 340.285 701.778 347.406 701.778H545.389C552.51 701.778 558.283 696.866 558.283 690.807V614.075C558.283 608.015 552.51 603.103 545.389 603.103H347.406C340.285 603.103 334.511 608.015 334.511 614.075" fill="#450000"/>
</g>
<mask id="mask2" mask-type="alpha" maskUnits="userSpaceOnUse" x="334" y="602" width="225" height="99">
<path fill-rule="evenodd" clip-rule="evenodd" d="M477.857 602.194C470.738 602.194 464.962 607.1 464.962 613.154V613.154C464.962 613.82 464.962 613.983 464.962 613.929V613.929C464.961 616.542 464.955 626.843 464.936 661.752V661.752C464.513 667.478 458.913 672.011 452.068 672.011V672.011H373.663C366.546 672.011 360.77 667.105 360.77 661.054V661.054V613.154C360.77 607.1 354.998 602.194 347.878 602.194V602.194C340.756 602.194 334.982 607.1 334.982 613.154V613.154V689.794C334.982 695.845 340.756 700.75 347.878 700.75V700.75H545.877C552.999 700.75 558.773 695.845 558.773 689.794V689.794V613.154C558.773 607.1 552.999 602.194 545.877 602.194V602.194H477.857ZM464.962 613.539C464.962 613.712 464.962 613.886 464.962 613.929V613.929C464.962 613.337 464.962 613.138 464.962 613.138V613.138C464.962 613.138 464.962 613.339 464.962 613.539V613.539Z" fill="white"/>
</mask>
<g mask="url(#mask2)">
<path fill-rule="evenodd" clip-rule="evenodd" d="M477.857 602.194C470.738 602.194 464.962 607.1 464.962 613.154V613.154C464.962 613.82 464.962 613.983 464.962 613.929V613.929C464.961 616.542 464.955 626.843 464.936 661.752V661.752C464.513 667.478 458.913 672.011 452.068 672.011V672.011H373.663C366.546 672.011 360.77 667.105 360.77 661.054V661.054V613.154C360.77 607.1 354.998 602.194 347.878 602.194V602.194C340.756 602.194 334.982 607.1 334.982 613.154V613.154V689.794C334.982 695.845 340.756 700.75 347.878 700.75V700.75H545.877C552.999 700.75 558.773 695.845 558.773 689.794V689.794V613.154C558.773 607.1 552.999 602.194 545.877 602.194V602.194H477.857ZM464.962 613.539C464.962 613.712 464.962 613.886 464.962 613.929V613.929C464.962 613.337 464.962 613.138 464.962 613.138V613.138C464.962 613.138 464.962 613.339 464.962 613.539V613.539Z" fill="url(#paint0_linear)"/>
</g>
<path fill-rule="evenodd" clip-rule="evenodd" d="M311.705 766.129C311.705 766.129 309.795 767.555 309.404 770.913C309.12 773.352 310.316 777.192 310.316 780.394C310.316 788.002 308.564 790.344 308.564 790.344C308.564 790.344 263.571 790.051 263.571 788.002C263.571 785.955 280.222 774.248 286.944 774.248C293.665 774.248 298.922 758.734 298.922 758.734L310.316 763.71L311.705 766.129Z" fill="#2F3453"/>
<path fill-rule="evenodd" clip-rule="evenodd" d="M312.498 794.668C312.498 794.668 301.855 794.486 294.404 794.36C286.955 794.234 275.056 794.929 271.329 794.865C267.604 794.802 254.268 785.768 255.204 782.909C256.139 780.049 268.368 780.976 274.805 777.852C281.244 774.725 293.037 764.592 294.692 766.328C296.351 768.062 307.311 768.721 309.404 770.913C311.498 773.106 314.393 792.812 312.498 794.668" fill="#3A758D"/>
<path fill-rule="evenodd" clip-rule="evenodd" d="M309.916 789.699C280.281 784.498 288.604 793.707 259.683 785.08C266.697 788.07 277.11 791.101 284.643 789.748C288.74 789.01 293.005 789.081 297.221 789.124C301.445 789.197 305.676 789.44 309.916 789.699" fill="#ACFCDD"/>
<path fill-rule="evenodd" clip-rule="evenodd" d="M290.058 781.369C289.641 781.851 288.918 781.898 288.445 781.478C286.787 780.005 283.118 777.059 279.565 775.038C280.264 774.579 280.975 774.102 281.69 773.613C285.933 776.187 289.701 779.509 289.952 779.735C290.425 780.159 290.472 780.891 290.058 781.369" fill="#ACFCDD"/>
<path fill-rule="evenodd" clip-rule="evenodd" d="M291.826 776.647C291.273 776.952 290.577 776.741 290.278 776.179C290.251 776.129 288.723 773.309 286.097 770.572C286.76 770.115 287.408 769.674 288.033 769.258C290.665 772.085 292.175 774.864 292.288 775.078C292.593 775.638 292.382 776.344 291.826 776.647" fill="#ACFCDD"/>
<path fill-rule="evenodd" clip-rule="evenodd" d="M435.943 632.88L417.833 630.537C417.833 630.537 353.198 596.349 342.397 608.878C333.301 619.43 334.674 622.853 346.068 634.268C357.463 645.683 377.891 656.939 377.891 656.939L393.29 662.147L362.266 633.269L407.312 652.781H459.121L435.943 632.88Z" fill="#202857"/>
<path fill-rule="evenodd" clip-rule="evenodd" d="M472.758 652.781C472.758 652.781 473.107 663.432 466.914 669.639C460.72 675.846 384.526 669.393 384.526 669.393L319.08 772.198L293.955 763.377C293.955 763.377 343.752 665.83 361.737 652.781C379.718 639.735 440.201 638.614 440.201 638.614L472.758 652.781Z" fill="#3F50AE"/>
<path fill-rule="evenodd" clip-rule="evenodd" d="M313.946 766.503L312.617 765.756C312.617 765.756 313.567 764.061 315.241 761.103L316.567 761.854C314.897 764.81 313.946 766.501 313.946 766.503" fill="#9CABFC"/>
<path fill-rule="evenodd" clip-rule="evenodd" d="M390.086 662.926C384.547 662.645 381.133 662.621 379.487 662.847L379.279 661.334C381.062 661.093 384.461 661.109 390.164 661.401L390.086 662.926ZM411.523 664.361L409.38 664.208C406.427 663.993 403.546 663.784 400.801 663.594L400.909 662.072C403.653 662.262 406.537 662.469 409.489 662.684L411.632 662.838L411.523 664.361ZM432.986 665.779C429.522 665.59 425.9 665.362 422.247 665.114L422.35 663.591C425.997 663.839 429.61 664.065 433.069 664.255L432.986 665.779ZM448.207 666.288C446.81 666.288 445.318 666.267 443.751 666.229L443.787 664.701C448.118 664.807 451.84 664.768 454.445 664.56L454.567 666.082C452.858 666.22 450.718 666.288 448.207 666.288V666.288ZM366.323 678.79L365.055 677.939C367.4 674.446 369.491 671.468 371.274 669.092L372.494 670.007C370.726 672.366 368.65 675.32 366.323 678.79V678.79ZM354.723 696.908L353.425 696.101C355.382 692.944 357.304 689.882 359.158 686.974L360.442 687.799C358.59 690.699 356.674 693.755 354.723 696.908V696.908ZM343.558 715.306L342.248 714.523C344.09 711.432 345.947 708.342 347.798 705.289L349.1 706.082C347.252 709.131 345.398 712.22 343.558 715.306V715.306ZM332.635 733.857L331.317 733.087C333.074 730.072 334.894 726.958 336.759 723.791L338.07 724.567C336.209 727.732 334.388 730.845 332.635 733.857V733.857ZM321.875 752.514L320.552 751.756C322.162 748.937 323.969 745.791 325.917 742.409L327.237 743.171C325.289 746.551 323.485 749.698 321.875 752.514V752.514Z" fill="#9CABFC"/>
<path fill-rule="evenodd" clip-rule="evenodd" d="M464.672 662.506L463.97 661.147C467.484 659.323 468.527 658.603 468.536 658.597L469.416 659.846C469.372 659.876 468.317 660.614 464.672 662.506" fill="#9CABFC"/>
<path fill-rule="evenodd" clip-rule="evenodd" d="M388.032 649.286C388.032 649.286 395.146 660.741 395.146 662.014C395.146 663.287 397.305 668.759 395.146 670.921C392.986 673.085 347.38 658.703 347.38 658.703C347.38 658.703 361.606 655.141 367.706 655.141C373.801 655.141 377.74 650.178 375.581 648.013C373.422 645.851 388.032 649.286 388.032 649.286" fill="#095270"/>
<path fill-rule="evenodd" clip-rule="evenodd" d="M394.086 675.261C394.086 675.261 390.72 676.775 376.867 670.917C363.016 665.058 339.596 665.224 339.489 659.966C339.382 654.705 356.49 653.481 366.551 655.913C376.615 658.341 389.091 662.133 393.915 666.774C398.737 671.415 394.086 675.261 394.086 675.261" fill="#653870"/>
<path fill-rule="evenodd" clip-rule="evenodd" d="M339.489 659.966C338.616 653.504 363.729 648.96 388.21 661.732C398.327 667.193 397.939 672.463 394.087 675.26C403.966 664.021 363.608 656.274 354.679 655.903C350.574 655.811 339.844 655.896 339.489 659.966" fill="#CDFDEB"/>
<path fill-rule="evenodd" clip-rule="evenodd" d="M478.017 528.098C478.017 528.098 496.581 534.221 499.637 539.463C512.172 560.989 502.902 654.144 472.758 665.074C457.514 670.604 417.832 630.537 417.832 630.537C417.832 630.537 446.931 606.959 448.8 570.83C450.581 536.373 478.017 528.098 478.017 528.098" fill="#6A3565"/>
<path fill-rule="evenodd" clip-rule="evenodd" d="M417.832 630.537C433.408 618.725 446.342 599.775 449.888 578.1C450.828 570.481 449.726 540.712 478.016 528.098C468.066 530.964 459.172 537.991 453.826 547.218C441.413 568.296 454.205 583.461 427.896 618.849C424.862 622.983 421.486 626.877 417.832 630.537" fill="#EDEEFF"/>
<path fill-rule="evenodd" clip-rule="evenodd" d="M347.38 608.795C347.38 608.795 375.105 626.205 383.359 637.85C391.612 649.496 395.232 655.985 395.232 655.985L363.958 651.353C363.958 651.353 338.971 635.521 336.134 625.824C333.301 616.126 341.987 605.272 347.38 608.795" fill="#546BE8"/>
<path fill-rule="evenodd" clip-rule="evenodd" d="M348.09 613.114C345.841 611.334 344.472 610.306 344.469 610.304L345.381 609.082C345.381 609.082 346.761 610.117 349.035 611.915L348.09 613.114ZM355.185 618.892C353.934 617.844 352.753 616.869 351.659 615.979L352.62 614.793C353.719 615.688 354.909 616.669 356.164 617.723L355.185 618.892ZM362.11 624.87C360.944 623.829 359.792 622.822 358.672 621.857L359.667 620.698C360.792 621.671 361.95 622.684 363.125 623.731L362.11 624.87ZM368.825 631.073C367.72 630.012 366.607 628.966 365.496 627.942L366.53 626.82C367.646 627.849 368.769 628.902 369.882 629.974L368.825 631.073ZM375.247 637.563C374.219 636.462 373.159 635.362 372.081 634.278L373.162 633.2C374.252 634.298 375.321 635.406 376.359 636.518L375.247 637.563ZM381.195 644.451C380.325 643.335 379.347 642.157 378.3 640.945L379.449 639.944C380.518 641.174 381.506 642.374 382.397 643.508L381.195 644.451ZM386.199 651.954C385.566 650.745 384.78 649.449 383.874 648.105L385.135 647.249C386.078 648.64 386.889 649.982 387.549 651.243L386.199 651.954Z" fill="#98A6F1"/>
<path fill-rule="evenodd" clip-rule="evenodd" d="M476.661 497.611L469.255 530.293C468.854 532.073 470.078 539.668 471.274 541.049C474.052 544.248 480.373 547.046 486.147 544.162C491.18 541.65 491.53 500.42 491.53 500.42C491.53 500.42 483.106 497.587 476.661 497.611" fill="#FC7575"/>
<path fill-rule="evenodd" clip-rule="evenodd" d="M491.53 500.419C491.53 500.419 491.536 501.78 491.512 504.023C490.582 507.03 488.995 511.637 487.127 514.904C484.631 519.269 476.657 525.725 470.469 524.939L476.66 497.611C483.106 497.588 491.53 500.419 491.53 500.419" fill="#FD5E5A"/>
<path fill-rule="evenodd" clip-rule="evenodd" d="M499.488 460.778C501.579 465.571 502.754 471.875 497.991 473.951C503.222 472.424 502.858 465.284 501.283 460.076L499.488 460.778Z" fill="#132759"/>
<path fill-rule="evenodd" clip-rule="evenodd" d="M476.391 473.194C476.391 473.194 469.398 472.645 466.892 481.136C464.391 489.625 463.651 514.42 470.014 518.023C476.376 521.623 486.099 515.007 488.74 510.604C491.491 506.024 493.392 498.324 493.392 498.324C493.392 498.324 500.078 467.182 476.391 473.194" fill="#FC7575"/>
<path fill-rule="evenodd" clip-rule="evenodd" d="M497.744 511.643C497.744 511.643 495.75 513.229 494.455 510.369C494.455 510.369 491.447 503.772 495.915 500.133C500.385 496.493 507.02 491.61 507.688 483.446C508.353 475.28 498.775 473.389 498.775 473.389C498.775 473.389 499.711 460.859 485.493 462.198C485.493 462.198 483.501 459.042 475.615 457.788C467.73 456.535 468.722 461.202 464.367 459.559C460.011 457.919 460.101 454.259 462.272 453.273C462.272 453.273 453.817 455.24 451.555 461.258C449.297 467.277 461.126 470.018 461.126 470.018C461.126 470.018 451.272 469.325 457.75 474.894C464.232 480.462 467.799 481.119 473.194 477.657C478.585 474.194 481.197 473.632 483.375 475.14C485.552 476.647 483.63 481.763 487.086 483.066C490.538 484.366 490.923 494.301 490.923 494.301C490.923 494.301 493.874 493.94 492.383 500.554C490.891 507.171 489.167 511.072 493.072 512.544C496.974 514.015 497.744 511.643 497.744 511.643" fill="#132759"/>
<path fill-rule="evenodd" clip-rule="evenodd" d="M494.399 487.024C496.558 487.2 501.301 489.796 495.722 495.596C490.144 501.394 487.9 493.673 488.966 490.834C490.031 487.996 492.746 486.889 494.399 487.024" fill="#FC7575"/>
<path fill-rule="evenodd" clip-rule="evenodd" d="M472.391 492.468C472.065 496.564 471.254 500.443 471.325 504.352C472.243 504.549 473.155 504.78 474.062 505.072C472.385 505.274 471.053 505.252 470.434 505.271C470.434 505.064 469.887 499.641 472.391 492.468" fill="#132759"/>
<path fill-rule="evenodd" clip-rule="evenodd" d="M474.244 491.63C474.475 491.717 474.739 491.613 474.848 491.389C474.881 491.326 475.66 489.799 477.877 489.382C479.793 489.02 483.918 491.018 485.35 491.815C485.596 491.955 485.875 491.861 486.005 491.63C486.135 491.398 486.052 491.103 485.819 490.974C485.596 490.85 480.346 487.932 477.699 488.433C474.987 488.944 474.02 490.886 473.981 490.968C473.865 491.208 473.966 491.495 474.207 491.612C474.22 491.618 474.232 491.626 474.244 491.63" fill="#132759"/>
<path fill-rule="evenodd" clip-rule="evenodd" d="M478.591 508.008C478.591 508.008 471.287 508.861 467.566 507.138C467.566 507.138 467.631 510.382 469.771 511.704C471.912 513.027 476.873 512.579 478.591 508.008" fill="white"/>
<path fill-rule="evenodd" clip-rule="evenodd" d="M496.282 491.77C496.282 491.77 494.928 496.408 492.637 495.89C490.348 495.372 490.511 491.741 492.418 490.314C494.328 488.887 496.773 490.467 496.282 491.77" fill="#FD5E5A"/>
<path fill-rule="evenodd" clip-rule="evenodd" d="M475.464 493.837C475.39 494.776 475.933 495.582 476.67 495.641C477.409 495.702 478.07 494.988 478.145 494.05C478.217 493.111 477.679 492.303 476.939 492.244C476.198 492.186 475.539 492.899 475.464 493.837" fill="#132759"/>
<path fill-rule="evenodd" clip-rule="evenodd" d="M465.942 492.596C465.868 493.535 466.408 494.342 467.148 494.402C467.887 494.461 468.548 493.749 468.623 492.81C468.695 491.872 468.157 491.062 467.417 491.004C466.676 490.945 466.017 491.659 465.942 492.596" fill="#132759"/>
<path fill-rule="evenodd" clip-rule="evenodd" d="M469.928 490.569C470.064 490.798 469.987 491.096 469.756 491.229C469.626 491.304 469.474 491.313 469.344 491.264C469.244 491.226 469.155 491.156 469.098 491.056C468.72 490.409 467.499 488.637 466.43 488.233C466.17 488.134 465.901 488.054 465.635 487.987C465.672 487.659 465.712 487.337 465.753 487.021C466.088 487.103 466.433 487.203 466.772 487.331C468.377 487.937 469.866 490.462 469.928 490.569" fill="#132759"/>
<path fill-rule="evenodd" clip-rule="evenodd" d="M465.036 661.951C465.055 626.94 465.061 616.652 465.064 614.057V614.059V614.057V614.024V613.866V613.838V613.846V613.828V613.819V613.641V613.636V613.639V613.579V613.422V613.416V613.351V613.295C465.064 607.235 470.83 602.322 477.943 602.322H545.893C553.008 602.322 558.776 607.235 558.776 613.295V690.027C558.776 696.087 553.008 700.998 545.893 700.998H452.862L452.181 672.224C459.02 672.224 464.613 667.684 465.036 661.951" fill="#FABF44"/>
<path fill-rule="evenodd" clip-rule="evenodd" d="M507.032 700.998H545.894C553.008 700.998 558.776 696.087 558.776 690.027V613.295C558.776 607.235 553.008 602.322 545.894 602.322H507.032C499.921 602.322 494.153 607.235 494.153 613.295V690.027C494.153 696.087 499.921 700.998 507.032 700.998" fill="#890D00"/>
<path fill-rule="evenodd" clip-rule="evenodd" d="M504.113 589.223L471.089 597.907C471.089 597.907 461.378 604.934 457.013 606.329C452.646 607.725 447.307 612.551 448.356 614.033C449.4 615.514 454.886 610.483 455.778 610.636C456.669 610.788 452.553 616.744 451.885 620.65C451.218 624.558 449.881 628.348 452.112 628.043C454.342 627.736 455.961 618.939 455.961 618.939C455.961 618.939 459.393 612.289 459.946 613.075C460.5 613.859 457.656 618.425 457.656 618.425C457.656 618.425 456.98 623.361 456.684 625.097C456.461 626.394 457.65 630.279 458.662 628.851C459.257 628.011 458.979 624.802 459.669 622.971C461.086 619.214 463.403 616.236 463.403 616.236C463.403 616.236 460.921 627.487 462.481 627.755C464.041 628.022 465.655 618.702 465.655 618.702C465.655 618.702 469.467 610.94 471.13 610.249C472.791 609.555 477.365 606.6 480.9 605.369C484.436 604.136 499.053 608.194 505.576 608.281C512.099 608.366 522.68 604.315 523.56 599.182C523.826 597.612 522.852 595.879 521.369 594.228C517.055 589.433 510.345 587.584 504.113 589.223" fill="#FC7575"/>
<path fill-rule="evenodd" clip-rule="evenodd" d="M405.838 585.865L368.532 595.126C368.532 595.126 358.823 602.154 354.455 603.549C350.089 604.943 344.753 609.771 345.799 611.251C346.847 612.734 352.333 607.701 353.224 607.854C354.116 608.007 350 613.964 349.331 617.87C348.661 621.776 347.326 625.568 349.559 625.261C351.789 624.954 353.408 616.157 353.408 616.157C353.408 616.157 356.84 609.509 357.393 610.293C357.946 611.078 355.101 615.643 355.101 615.643C355.101 615.643 354.426 620.579 354.131 622.315C353.908 623.61 355.095 627.498 356.108 626.071C356.703 625.231 356.421 622.022 357.114 620.19C358.533 616.433 360.848 613.455 360.848 613.455C360.848 613.455 358.368 624.705 359.928 624.974C361.488 625.243 363.102 615.921 363.102 615.921C363.102 615.921 366.912 608.159 368.573 607.467C370.238 606.774 374.808 603.817 378.346 602.587C381.882 601.356 395.795 603.494 402.318 603.58C408.838 603.667 416.005 602.323 416.005 602.323C416.005 602.323 412.07 584.227 405.838 585.865" fill="#FD5E5A"/>
<path fill-rule="evenodd" clip-rule="evenodd" d="M515.196 483.687C515.42 483.687 515.64 483.557 515.734 483.336C528.377 454.763 494.843 429.632 494.503 429.382C494.242 429.187 493.869 429.244 493.677 429.509C493.484 429.77 493.54 430.142 493.804 430.335C494.135 430.579 526.914 455.154 514.657 482.855C514.524 483.154 514.657 483.505 514.956 483.637C515.033 483.67 515.115 483.687 515.196 483.687" fill="#411AC0"/>
<path fill-rule="evenodd" clip-rule="evenodd" d="M448.355 645.173L390.24 640.172L343.163 643.208L388.33 646.039L448.355 645.173Z" fill="#838BC5"/>
<path fill-rule="evenodd" clip-rule="evenodd" d="M448.355 648.871H390.023V643.208L448.355 645.173V648.871Z" fill="#0F1D5B"/>
<mask id="mask3" mask-type="alpha" maskUnits="userSpaceOnUse" x="345" y="573" width="45" height="75">
<path fill-rule="evenodd" clip-rule="evenodd" d="M345.294 573.579L389.702 647.667V642.075L348.368 573.579H345.294Z" fill="white"/>
</mask>
<g mask="url(#mask3)">
<path fill-rule="evenodd" clip-rule="evenodd" d="M345.294 573.579L389.702 647.667V642.075L348.368 573.579H345.294Z" fill="url(#paint1_linear)"/>
</g>
<path fill-rule="evenodd" clip-rule="evenodd" d="M304.228 589.513L344.86 574.619L389.765 649.663L339.949 648.269L304.228 589.513Z" fill="#0F1D5B"/>
<path fill-rule="evenodd" clip-rule="evenodd" d="M290.891 505.066H362.536C365.793 505.066 368.429 509.319 368.429 514.565V536.666C368.429 541.912 365.793 546.164 362.536 546.164H359.293L368.429 576.252L339.847 546.164H290.891C287.638 546.164 284.999 541.912 284.999 536.666V514.565C284.999 509.319 287.638 505.066 290.891 505.066" fill="#ED4790"/>
<path fill-rule="evenodd" clip-rule="evenodd" d="M544.771 100.485C528.768 100.485 515.794 106.083 515.794 112.988C515.794 116.438 519.036 119.564 524.28 121.826L521.591 133.82L531.456 124.091C535.443 124.983 539.972 125.486 544.771 125.486C560.777 125.486 573.751 119.889 573.751 112.988C573.751 106.083 560.777 100.485 544.771 100.485" fill="white"/>
<path fill-rule="evenodd" clip-rule="evenodd" d="M556.144 116.173C556.144 117.491 557.21 118.559 558.525 118.559C559.843 118.559 560.911 117.491 560.911 116.173C560.911 114.854 559.843 113.786 558.525 113.786C557.21 113.786 556.144 114.854 556.144 116.173" fill="#99D7FF"/>
<path fill-rule="evenodd" clip-rule="evenodd" d="M549.846 116.173C549.846 117.491 550.912 118.559 552.227 118.559C553.543 118.559 554.613 117.491 554.613 116.173C554.613 114.854 553.543 113.786 552.227 113.786C550.912 113.786 549.846 114.854 549.846 116.173" fill="#99D7FF"/>
<path fill-rule="evenodd" clip-rule="evenodd" d="M543.548 116.173C543.548 117.491 544.614 118.559 545.929 118.559C547.245 118.559 548.312 117.491 548.312 116.173C548.312 114.854 547.245 113.786 545.929 113.786C544.614 113.786 543.548 114.854 543.548 116.173" fill="#99D7FF"/>
<defs>
<linearGradient id="paint0_linear" x1="281.485" y1="683.016" x2="431.127" y2="821.798" gradientUnits="userSpaceOnUse">
<stop stop-color="#F47938"/>
<stop offset="1" stop-color="#FFFB4D"/>
</linearGradient>
<linearGradient id="paint1_linear" x1="389.703" y1="573.579" x2="345.294" y2="573.579" gradientUnits="userSpaceOnUse">
<stop stop-color="#A8A5DD"/>
<stop offset="1" stop-color="#BCB8F2"/>
</linearGradient>
</defs>
</svg>
